# xmcd CD database file
#
# Track frame offsets:
#	150
#	13567
#	27327
#	38302
#	47502
#	55977
#	67527
#	77100
#	88102
#	99750
#
# Disc length: 1514 seconds
#
# Revision: 3
# Processed by: cddbd v1.5.1PL0 Copyright (c) Steve Scherf et al.
# Submitted via: CDex 1.51
#
DISCID=6305e80a
DTITLE=Willie Nelson - A Profile Of Willie Nelson
DYEAR=1994
DGENRE=Country
TTITLE0=I Just Don't Understand
TTITLE1=You'll Always Have Someone
TTITLE2=Blame It On The Time
TTITLE3=Wastin' Time
TTITLE4=You Wouldn't Cross the Street To Say Goodbye
TTITLE5=I'm Gonna Lose A Lot Of Teardrops
TTITLE6=One Step Beyond
TTITLE7=I Feel Sorry For Him
TTITLE8=Suffer in Silence
TTITLE9=Home Is Where You're Happy
EXTD=YEAR: 1994
EXTT0=
EXTT1=
EXTT2=
EXTT3=
EXTT4=
EXTT5=
EXTT6=
EXTT7=
EXTT8=
EXTT9=
PLAYORDER=
